HIERARCHY
ROOT Hips
{
    OFFSET 0.0 0.0 0.0
    CHANNELS 6 Xposition Yposition Zposition Zrotation Xrotation Yrotation
    JOINT LeftHipJoint
    {
        OFFSET 0.1 0.0 0.0
        CHANNELS 3 Zrotation Xrotation Yrotation
        JOINT LeftUpLeg
        {
            OFFSET 122.51943608581978 0.0 0.0
            CHANNELS 3 Zrotation Xrotation Yrotation
            JOINT LeftLeg
            {
                OFFSET 0.0 0.0 -407.3478834750383
                CHANNELS 3 Zrotation Xrotation Yrotation
                JOINT LeftFoot
                {
                    OFFSET 0.0 0.0 -400.8995780590727
                    CHANNELS 3 Zrotation Xrotation Yrotation
                    End Site
                    {
                        OFFSET 0.0 -0.1 0.0
                    }
                }
            }
        }
    }
    JOINT LowerBack
    {
        OFFSET 0.0 0.0 0.1
        CHANNELS 3 Zrotation Xrotation Yrotation
        JOINT Spine
        {
            OFFSET 0.0 0.0 221.10478327584352
            CHANNELS 3 Zrotation Xrotation Yrotation
            JOINT Spine1
            {
                OFFSET 0.0 0.0 256.01816500104496
                CHANNELS 3 Zrotation Xrotation Yrotation
                JOINT LeftShoulder
                {
                    OFFSET 0.1 0.0 0.0
                    CHANNELS 3 Zrotation Xrotation Yrotation
                    JOINT LeftArm
                    {
                        OFFSET 143.75654661564408 0.0 0.0
                        CHANNELS 3 Zrotation Xrotation Yrotation
                        JOINT LeftForeArm
                        {
                            OFFSET 259.9361632680932 0.0 0.0
                            CHANNELS 3 Zrotation Xrotation Yrotation
                            JOINT LeftHand
                            {
                                OFFSET 239.99891223661794 0.0 0.0
                                CHANNELS 3 Zrotation Xrotation Yrotation
                                End Site
                                {
                                    OFFSET 0.1 0.0 0.0
                                }
                            }
                        }
                    }
                }
                JOINT Neck
                {
                    OFFSET 0.0 0.0 0.1
                    CHANNELS 3 Zrotation Xrotation Yrotation
                    JOINT Neck1
                    {
                        OFFSET 0.0 0.0 110.02212105351823
                        CHANNELS 3 Zrotation Xrotation Yrotation
                        End Site
                        {
                            OFFSET 0.0 0.0 116.33301594527732
                        }
                    }
                }
                JOINT RightShoulder
                {
                    OFFSET -0.1 0.0 0.0
                    CHANNELS 3 Zrotation Xrotation Yrotation
                    JOINT RightArm
                    {
                        OFFSET -143.75654661564408 0.0 0.0
                        CHANNELS 3 Zrotation Xrotation Yrotation
                        JOINT RightForeArm
                        {
                            OFFSET -259.9361632680932 0.0 0.0
                            CHANNELS 3 Zrotation Xrotation Yrotation
                            JOINT RightHand
                            {
                                OFFSET -239.99891223661794 0.0 0.0
                                CHANNELS 3 Zrotation Xrotation Yrotation
                                End Site
                                {
                                    OFFSET -0.1 0.0 0.0
                                }
                            }
                        }
                    }
                }
            }
        }
    }
    JOINT RightHipJoint
    {
        OFFSET -0.1 0.0 0.0
        CHANNELS 3 Zrotation Xrotation Yrotation
        JOINT RightUpLeg
        {
            OFFSET -122.51943608581978 0.0 0.0
            CHANNELS 3 Zrotation Xrotation Yrotation
            JOINT RightLeg
            {
                OFFSET 0.0 0.0 -407.3478834750383
                CHANNELS 3 Zrotation Xrotation Yrotation
                JOINT RightFoot
                {
                    OFFSET 0.0 0.0 -400.8995780590727
                    CHANNELS 3 Zrotation Xrotation Yrotation
                    End Site
                    {
                        OFFSET 0.0 -0.1 0.0
                    }
                }
            }
        }
    }
}
MOTION
Frames: 7
Frame Time: 0.03333333333333333
0.0 0.0 812.1448042554717 29.392280558602224 1.359593088608689 5.0838001566645366 5.549711287831621e-34 -1.9878466759146977e-16 3.199190744050217e-16 -0.31643322148384845 -14.24290677353366 -1.7107422198518587 -0.19410657917509888 24.96469029116408 -1.5401744203536591 0.0 0.0 0.0 5.549711287831621e-34 -1.9878466759146977e-16 3.199190744050217e-16 -0.004635471143548697 -0.21149285932181236 -0.7528651145305149 0.7486136932463032 -1.0957178059783979e-18 -1.6772098416733043e-16 1.6891596978011778e-33 1.987846675914698e-16 -9.737342701550904e-16 -27.70274931630528 10.223731841482195 77.19901888070572 -17.005833706171533 -2.9360972933541524e-15 8.172565382325047e-16 0.0 0.0 2.435112177995505e-15 1.6891596978011778e-33 1.987846675914698e-16 -9.737342701550904e-16 -5.043806565114747 -5.7439921173849555 -0.2751421699298497 1.6891596978011778e-33 1.987846675914698e-16 -9.737342701550904e-16 20.278289222366126 9.687168447586128 -75.18377565559408 29.24564569834528 -5.3521183454221875e-15 4.683424988776133e-15 6.361109362927035e-15 6.361109362927035e-15 -1.5902773407317592e-15 5.549711287831621e-34 -1.9878466759146977e-16 3.199190744050217e-16 -0.21446817422692288 -9.593940657248963 -3.6152307019657237 -0.9263454388244866 21.583498861785593 0.6729654952555956 2.758691436281349e-32 -1.5902773407317584e-15 1.987846675914698e-15
0.0 0.0 812.1448042554717 29.397598860985696 1.1701209201090454 5.0632939591454935 0.0 0.0 9.318031293350146e-17 -0.2970467354777243 -13.958196984310554 -1.656447738288663 -0.1936532700542179 24.906430251245265 -1.5966302653598747 -4.827710013492361e-33 1.3914926731402886e-15 3.975693351829396e-16 0.0 0.0 9.318031293350146e-17 -0.003102024804026047 -0.14755280146230795 -0.7573995768876509 0.7027398142837405 1.86667278122532e-18 3.043832984884301e-16 0.0 0.0 5.590818776010089e-17 -26.960293946573223 10.331127570331265 77.23234565381553 -17.118227606978774 1.876952499219756e-15 8.855629956377389e-16 -3.6552661530727874e-32 -3.975693351829395e-16 -1.0535587382347897e-14 0.0 0.0 5.590818776010089e-17 -4.8778286508175395 -5.666626546847821 -0.23904545208014358 0.0 0.0 5.590818776010089e-17 19.98029823071116 10.217557799543929 -75.2901239415521 29.82167736741036 -4.5101017357035e-15 7.783727062779129e-15 0.0 0.0 -4.770832022195275e-15 0.0 0.0 9.318031293350146e-17 -0.19992659591960343 -9.321450337455012 -3.562373287019285 -0.9196054016073921 21.44029642216857 0.635541400819524 0.0 0.0 -3.975693351829396e-16
0.0 0.0 812.1448042554717 29.316843256535098 1.027389068513265 5.039422088269706 0.0 0.0 -9.93923337957349e-16 -0.2819801123820588 -13.86365311286145 -1.5794623697682524 -0.1838000321763672 24.955954087002972 -1.6882690995806235 0.0 0.0 -3.975693351829396e-16 0.0 0.0 -9.93923337957349e-16 -0.0010161255545892028 -0.0505479705982391 -0.6601557195087524 0.652146509891414 2.8282193843927e-19 4.9695362118530066e-17 0.0 0.0 -3.7272125173400585e-16 -26.385167486945832 10.480874706178598 77.20019981766934 -17.11901741074723 -2.9028325541152537e-15 1.1272716961137675e-14 0.0 0.0 -1.987846675914698e-16 0.0 0.0 -3.7272125173400585e-16 -4.772744889011917 -5.666913358900326 -0.3977986671063993 0.0 0.0 -3.7272125173400585e-16 20.27149276882592 11.002380166311974 -75.49566118998247 30.61089120652417 -7.52413502038465e-15 8.654158379539557e-15 0.0 0.0 -1.5902773407317584e-15 0.0 0.0 -9.93923337957349e-16 -0.19079087216100463 -9.301660561354335 -3.448985271127024 -0.9003963135497934 21.535097362352325 0.5924512835944612 0.0 0.0 3.975693351829396e-16
0.0 0.0 812.1448042554717 29.3669049625954 0.9166160913742154 5.069625825336177 0.0 0.0 8.696829207126804e-17 -0.2686510757740523 -13.87202823921533 -1.5948154504795875 -0.2203122687314857 25.265411475746173 -1.6797767054046198 0.0 0.0 0.0 0.0 0.0 8.696829207126804e-17 -0.00027683529266656564 -0.014460453667770936 -0.632128473964918 0.6441468764575862 -8.520257531637742e-18 -1.5157091431074528e-15 0.0 0.0 3.4787316828507215e-16 -26.289412680298554 10.861829152075039 77.2470491233823 -17.17137562607109 -3.1417793069630607e-15 1.5483009126467285e-14 0.0 0.0 4.721135855297407e-16 0.0 0.0 3.4787316828507215e-16 -4.812166319507157 -5.633317458953447 -0.4227565964511126 0.0 0.0 3.4787316828507215e-16 20.26788652969632 11.578978016410389 -75.69784429016013 31.183143599350878 1.210800809567437e-15 1.617244853217402e-14 0.0 0.0 -3.1805546814635168e-15 0.0 0.0 8.696829207126804e-17 -0.17973980997579092 -9.199365622694156 -3.479261029528716 -0.9404821700551568 21.661044416798823 0.6338627687515357 0.0 0.0 3.975693351829396e-16
0.0 0.0 812.1448042554717 29.518785053729186 0.7910128532318796 5.143110061173814 0.0 0.0 2.7332891793827095e-16 -0.2618166193383928 -13.933802522753018 -1.6431936753196177 -0.2632125768265378 25.63609582721335 -1.6561054416613188 0.0 1.3914926731402886e-15 0.0 0.0 0.0 2.7332891793827095e-16 0.0018668927449239368 0.10050413760213031 -0.7401136709389051 0.7307568970834256 6.892860755059809e-18 1.0808696518713676e-15 -6.3611093629270335e-15 4.0001025826079564e-32 -7.20594420019078e-16 -25.896699711632966 11.111839286702994 77.26588102536448 -17.320332817471655 2.744138712501086e-15 5.74650542310952e-15 0.0 0.0 -2.435112177995506e-15 -6.3611093629270335e-15 4.0001025826079564e-32 -7.20594420019078e-16 -4.928893427120143 -5.721647622018522 -0.3999047991953686 -6.3611093629270335e-15 4.0001025826079564e-32 -7.20594420019078e-16 20.4391740537367 12.180353317680645 -75.55848253021833 32.1283628260288 -4.8165692319571736e-15 -5.232618965934836e-15 0.0 0.0 -1.5902773407317584e-15 0.0 0.0 2.7332891793827095e-16 -0.17349002300086974 -9.148700732564581 -3.5320642929091117 -0.9821244357042913 21.81082850184876 0.5764023019987463 -6.896728590703373e-34 -1.9878466759146977e-16 -3.9756933518293955e-16
0.0 0.0 812.1448042554717 29.632719254675393 0.6710478815904143 5.225382723366 0.0 0.0 7.454425034680117e-17 -0.2657080213714002 -14.154481020178524 -1.7347273258083697 -0.3147435291329827 26.16893262846559 -1.5333199442435863 1.3793457181406746e-33 -1.987846675914698e-16 7.951386703658792e-16 0.0 0.0 7.454425034680117e-17 0.003279597200079239 0.17680381673471682 -0.8234661601606936 0.8423137836881711 -3.971933026238246e-16 5.261716101163366e-17 0.0 0.0 7.454425034680117e-17 -25.9822931670507 11.485129597549845 77.23100469714007 -17.328821247093448 4.858681119432047e-15 -1.077140453970997e-14 0.0 0.0 7.45442503468012e-17 0.0 0.0 7.454425034680117e-17 -5.021813986133115 -5.75544271919267 -0.4388870791190678 0.0 0.0 7.454425034680117e-17 20.487085373668922 12.616252153420103 -75.30811350047956 33.44809959276361 4.261556852965008e-15 -7.922534811736892e-15 0.0 0.0 -1.5902773407317584e-15 0.0 0.0 7.454425034680117e-17 -0.17434226339328118 -9.201729872015294 -3.5695984705309907 -1.0153206778040058 22.158828603328036 0.5412220246631113 0.0 0.0 0.0
0.0 0.0 812.1448042554717 29.711429347991185 0.6616334834064201 5.265481668258608 0.0 0.0 -3.2302508483613845e-16 -0.28602821494018155 -14.420422812326628 -1.7351940087881472 -0.2912062477518309 26.695588407041534 -1.507377482597249 0.0 0.0 0.0 0.0 0.0 -3.2302508483613845e-16 0.0011053282583698746 0.05646973631536277 -0.9087809699456321 1.0105063428606362 -4.1376844599564955e-16 -1.835180829324065e-15 -1.0129570117595579e-33 1.987846675914698e-16 5.839299610499425e-16 -25.475728760994063 11.856158689969906 77.40866364471978 -17.04579224623075 3.568377850083869e-15 -6.374771253157588e-15 -3.9756933518293955e-16 1.9483258268737028e-32 -5.615666859459021e-15 -1.0129570117595579e-33 1.987846675914698e-16 5.839299610499425e-16 -5.070412230382676 -5.708800937478197 -0.36647364605036187 -1.0129570117595579e-33 1.987846675914698e-16 5.839299610499425e-16 20.347752353248207 13.128245882284702 -74.9226231091954 35.07469686564383 -7.023837989845039e-15 -1.1159481624641402e-15 0.0 0.0 -1.5902773407317584e-15 0.0 0.0 -3.2302508483613845e-16 -0.18694492069596483 -9.354564608771502 -3.506846790564248 -0.9894689475859411 22.659144729801483 0.4617331518480069 0.0 0.0 3.975693351829396e-16
